Coordinates
nRows=10
nColumns=38

# SIMM Motion File Header:
name Coordinates
datacolumns 38
datarows 10
otherdata 1
range 1.11700000000000000000 1.12600000000000010000

Units are S.I. units (second, meters, Newtons, ...)
Angles are in degrees.

endheader
time	pelvis_tilt	pelvis_list	pelvis_rotation	pelvis_tx	pelvis_ty	pelvis_tz	hip_flexion_r	hip_adduction_r	hip_rotation_r	knee_angle_r	ankle_angle_r	subtalar_angle_r	mtp_angle_r	hip_flexion_l	hip_adduction_l	hip_rotation_l	knee_angle_l	ankle_angle_l	subtalar_angle_l	mtp_angle_l	lumbar_extension	lumbar_bending	lumbar_rotation	arm_flex_r	arm_add_r	arm_rot_r	elbow_flex_r	pro_sup_r	wrist_flex_r	wrist_dev_r	arm_flex_l	arm_add_l	arm_rot_l	elbow_flex_l	pro_sup_l	wrist_flex_l	wrist_dev_l
      1.11700000000000000000	    -10.56915366628883400000	      1.09459174376978270000	     -6.98802119716691550000	      0.91893557631755041000	      0.98071389930202491000	     -0.30692502033998426000	    -13.53998095360128000000	     -2.67160290094338220000	     -1.61135739359950870000	    -49.90319017318871200000	    -21.66300687667537900000	      0.00000000000011617207	     -0.00000000000013434897	     41.69727751469611800000	      1.88143869259089150000	     -3.54719389824891000000	    -12.88502872777608000000	      5.35625893252642180000	      0.00000000000001609053	      0.00000000000000551569	     -0.95724751100422545000	     -2.84903788332122240000	     20.14860007772190500000	     -5.95515416950907730000	    -30.44162167576925200000	     -4.62091354997724930000	    127.26718345896211000000	     89.03552970502759900000	     -0.00000000000001574479	     -0.00000000000000703810	    -47.21157014634248800000	    -17.18912946037676500000	    -14.27297478494919900000	    116.52350825534475000000	    117.19824649669631000000	     -0.00000000000000077915	      0.00000000000000144313
      1.11800000000000010000	    -10.53392611710105200000	      1.00164796607141750000	     -7.00220030468703230000	      0.91908262986570743000	      0.98045111217504854000	     -0.30686659187994730000	    -13.40630566112197800000	     -2.56350607109193530000	     -1.46236818275761250000	    -50.58885266721544800000	    -21.55351776102081400000	      0.00000000000011674794	     -0.00000000000013503887	     41.50655794604063000000	      1.80917266815210450000	     -3.61052562765088810000	    -12.80193092355954600000	      5.37233168000514280000	      0.00000000000001614916	      0.00000000000000554581	     -0.99268871460107655000	     -2.76041333367038710000	     20.09404351486179500000	     -6.09072876684317330000	    -30.41977495643897500000	     -4.62797492136463080000	    127.24318275390934000000	     89.06043528505206600000	     -0.00000000000001582319	     -0.00000000000000706929	    -47.16136219033023700000	    -17.19122958619486500000	    -14.26969609004264700000	    116.55490243533905000000	    117.19678353859315000000	     -0.00000000000000079032	      0.00000000000000144380
      1.11900000000000000000	    -10.49806506749097100000	      0.91153193594168658000	     -7.01468327306677430000	      0.91923145918021953000	      0.98017848987289424000	     -0.30681133107146474000	    -13.27147884889961600000	     -2.45909567406292770000	     -1.32263105977351960000	    -51.27735890661424600000	    -21.45048335231346900000	      0.00000000000011732300	     -0.00000000000013572725	     41.31824092012988800000	      1.74047619438118260000	     -3.67469213977963260000	    -12.73507611196904500000	      5.38526893057148290000	      0.00000000000001620625	      0.00000000000000558053	     -1.02772240007242610000	     -2.67505112809831220000	     20.03669036885154100000	     -6.22781703335692870000	    -30.39715585716530200000	     -4.63330430186460610000	    127.21527839931244000000	     89.08439815290371700000	     -0.00000000000001590041	     -0.00000000000000710076	    -47.11034472690577200000	    -17.19547128199824500000	    -14.26626646703829900000	    116.58618349000294000000	    117.19310190905321000000	     -0.00000000000000080140	      0.00000000000000144541
      1.12000000000000010000	    -10.46157516734706000000	      0.82436230908111785000	     -7.02550381364483200000	      0.91938202531600943000	      0.97989599065984689000	     -0.30675926349553279000	    -13.13551122904588200000	     -2.35857488043777240000	     -1.19200042144753750000	    -51.96862526689738400000	    -21.35361118185520400000	      0.00000000000011789749	     -0.00000000000013641522	     41.13226274197872800000	      1.67543529436490530000	     -3.73969299531550450000	    -12.68405516009788100000	      5.39469032130959650000	      0.00000000000001626662	      0.00000000000000561778	     -1.06232579183251370000	     -2.59307593883164820000	     19.97656705112489200000	     -6.36637054850261560000	    -30.37377338205035200000	     -4.63693736505158680000	    127.18346022077709000000	     89.10755240031126300000	     -0.00000000000001597658	     -0.00000000000000713358	    -47.05853683185783600000	    -17.20186707521216700000	    -14.26271109333060100000	    116.61734783576496000000	    117.18717168083849000000	     -0.00000000000000081171	      0.00000000000000144727
      1.12100000000000000000	    -10.42449187372025700000	      0.74024064010918833000	     -7.03468691678000810000	      0.91953425019735591000	      0.97960353236578801000	     -0.30671042281267219000	    -12.99837806157197100000	     -2.26211574961136860000	     -1.07031624743753470000	    -52.66257454068050200000	    -21.26258764432559500000	      0.00000000000011846890	     -0.00000000000013710318	     40.94861027969691500000	      1.61412138264464460000	     -3.80553070040720560000	    -12.64847722107391400000	      5.40010426935386520000	      0.00000000000001633004	      0.00000000000000565869	     -1.09644934758191610000	     -2.51458945840677830000	     19.91369180664887400000	     -6.50634402147355400000	    -30.34963551918276900000	     -4.63891578778024720000	    127.14771970535713000000	     89.13003888250602800000	     -0.00000000000001605304	     -0.00000000000000717221	    -47.00595663397886200000	    -17.21042605697075000000	    -14.25905351256139800000	    116.64838775070425000000	    117.17897030982398000000	     -0.00000000000000082216	      0.00000000000000144912
      1.12200000000000010000	    -10.38685687793958600000	      0.65925385334997400000	     -7.04224940039845480000	      0.91968803008740174000	      0.97930102470535874000	     -0.30666485050254977000	    -12.86004853280506500000	     -2.16986563636724310000	     -0.95740759485101590000	    -53.35912853129569600000	    -21.17708123867646100000	      0.00000000000011903994	     -0.00000000000013779139	     40.76729081044778300000	      1.55659732086815140000	     -3.87219937947482910000	    -12.62796341097164200000	      5.40106977209369890000	      0.00000000000001639790	      0.00000000000000570124	     -1.13004360202740760000	     -2.43967650285969520000	     19.84807493269788700000	     -6.64769066594282430000	    -30.32475092440326800000	     -4.63928671951933680000	    127.10805085760920000000	     89.15200225402172400000	     -0.00000000000001613044	     -0.00000000000000721589	    -46.95261846617080400000	    -17.22115377202675300000	    -14.25531541691760600000	    116.67929333781737000000	    117.16848221073735000000	     -0.00000000000000083360	      0.00000000000000144941
      1.12300000000000000000	    -10.34870709803060900000	      0.58147697603825677000	     -7.04819632807379560000	      0.91984323953296276000	      0.97898838634634888000	     -0.30662260105083960000	    -12.72049904172533800000	     -2.08195127520614110000	     -0.85309889763964575000	    -54.05820439064654400000	    -21.09674511719563500000	      0.00000000000011961143	     -0.00000000000013848014	     40.58832078445247000000	      1.50292262797260780000	     -3.93969017867119400000	    -12.62214691878027800000	      5.39715888459633320000	      0.00000000000001646660	      0.00000000000000573777	     -1.16307138758612410000	     -2.36840969345442790000	     19.77971526178911800000	     -6.79035952118669250000	    -30.29912891337363900000	     -4.63810216826315980000	    127.06445008566511000000	     89.17358951088003500000	     -0.00000000000001620803	     -0.00000000000000726024	    -46.89853101172825900000	    -17.23405248234319500000	    -14.25151662789306400000	    116.71005299459240000000	    117.15569820822114000000	     -0.00000000000000084501	      0.00000000000000145033
      1.12400000000000010000	    -10.31006828269833900000	      0.50697461892525286000	     -7.05251934977190140000	      0.91999973441035299000	      0.97866555487358331000	     -0.30658374489881668000	    -12.57972072506233000000	     -1.99848135282239410000	     -0.75721349058305076000	    -54.75971259374380700000	    -21.02121939825878600000	      0.00000000000012018245	     -0.00000000000013916940	     40.41171910315549100000	      1.45315664381611340000	     -4.00798557581809780000	    -12.63067343064425400000	      5.38795820600080780000	      0.00000000000001653623	      0.00000000000000577573	     -1.19551473108839670000	     -2.30085194599770880000	     19.70859865893649500000	     -6.93429408131259260000	    -30.27277960605044900000	     -4.63541852973462820000	    127.01691629026958000000	     89.19494851311155500000	     -0.00000000000001628479	     -0.00000000000000730413	    -46.84369648306613200000	    -17.24912112970022800000	    -14.24767503538820000000	    116.74065362901342000000	    117.14061514876956000000	     -0.00000000000000085712	      0.00000000000000145083
      1.12500000000000000000	    -10.27095047386255400000	      0.43580147918148726000	     -7.05519659952608440000	      0.92015735403999777000	      0.97833249397706767000	     -0.30654836790171880000	    -12.43772446398869700000	     -1.91954778867672400000	     -0.66957485477450729000	    -55.46355579243674300000	    -20.95013337118088300000	      0.00000000000012075355	     -0.00000000000013985925	     40.23750252086014000000	      1.40735815785185680000	     -4.07707830659433860000	    -12.65320312760823600000	      5.37309366176329290000	      0.00000000000001660340	      0.00000000000000581009	     -1.22737966938682350000	     -2.23705768518780610000	     19.63469809919686400000	     -7.07943142064897660000	    -30.24571403971097200000	     -4.63129617117288280000	    126.96545103877438000000	     89.21622655262108000000	     -0.00000000000001636250	     -0.00000000000000734803	    -46.78811017828795100000	    -17.26635528106935200000	    -14.24380657812191100000	    116.77108086401788000000	    117.12323553498709000000	     -0.00000000000000086900	      0.00000000000000145236
      1.12600000000000010000	    -10.23134573063896400000	      0.36800565735022578000	     -7.05619242180556320000	      0.92031592157861319000	      0.97798919877713830000	     -0.30651657628362100000	    -12.29454259732795200000	     -1.84523067712475950000	     -0.59000975270970379000	    -56.16962918193684100000	    -20.88310688948070000000	      0.00000000000012132344	     -0.00000000000014054945	     40.06568325907670000000	      1.36559284172532200000	     -4.14690165201870810000	    -12.68940828846014100000	      5.35217176153885440000	      0.00000000000001667021	      0.00000000000000583886	     -1.25869832870073980000	     -2.17707636800557360000	     19.55797350807131700000	     -7.22570179664400230000	    -30.21794419441133400000	     -4.62579907797738250000	    126.91005842681379000000	     89.23756923770433500000	     -0.00000000000001643986	     -0.00000000000000739024	    -46.73175986393474100000	    -17.28574685750408700000	    -14.23992500128580800000	    116.80131850616087000000	    117.10356733936096000000	     -0.00000000000000088073	      0.00000000000000145403
